<?xml version="1.0" encoding="iso-8859-1"?>
<!-- Generator: Adobe Illustrator 19.0.0, SVG Export Plug-In . SVG Version: 6.00 Build 0)  -->
<svg xmlns="http://www.w3.org/2000/svg" xmlns:xlink="http://www.w3.org/1999/xlink" version="1.1" id="Layer_1" x="0px" y="0px" viewBox="0 0 454.478 454.478" style="enable-background:new 0 0 454.478 454.478;" xml:space="preserve" width="512" height="512">
<g>
	<rect x="7.5" y="409.9" style="fill:#E6E6E6;" width="439.478" height="25.499"/>
	<rect x="53.502" y="196.498" style="fill:#BCA2A2;" width="51.99" height="210.4"/>
	<polygon style="fill:#E6E6E6;" points="183.482,119.568 183.482,168.558 157.492,168.558 157.492,406.898 105.492,406.898    105.492,196.498 105.492,60.408 134.832,60.408 183.482,60.408  "/>
	<polygon style="fill:#CCCCCC;" points="235.482,333.888 235.482,333.898 209.482,333.898 209.482,406.898 183.482,406.898    157.492,406.898 157.492,168.558 183.482,168.558 235.482,168.558  "/>
	<polygon style="fill:#BCA2A2;" points="367.982,333.898 367.982,406.898 301.982,406.898 235.482,406.898 209.482,406.898    209.482,333.898 235.482,333.898 301.982,333.898  "/>
	<polygon style="fill:#E6E6E6;" points="400.972,130.228 400.972,406.898 367.982,406.898 367.982,333.898 301.982,333.898    301.982,333.888 301.982,130.228 318.482,130.228 384.482,130.228  "/>
	<polygon style="fill:#CCCCCC;" points="384.482,77.728 384.482,130.228 318.482,130.228 318.482,77.728 337.232,77.728    365.732,77.728  "/>
	<rect x="337.232" y="52.228" style="fill:#E6E6E6;" width="28.5" height="25.5"/>
	<path style="fill:#FFD039;" d="M184.302,19.078c27.75,0,50.25,22.5,50.25,50.25s-22.5,50.25-50.25,50.25c-0.27,0-0.55,0-0.82-0.01   v-59.16h-48.65C139.052,36.918,159.592,19.078,184.302,19.078z"/>
	<g>
		<path style="fill:#333333;" d="M7.5,414.4h439.478c4.143,0,7.5-3.358,7.5-7.5s-3.357-7.5-7.5-7.5h-38.504V130.227    c0-4.142-3.357-7.5-7.5-7.5h-8.996v-45c0-4.142-3.357-7.5-7.5-7.5h-11.249V52.229c0-4.142-3.357-7.5-7.5-7.5h-6.749V34.229    c0-4.142-3.357-7.5-7.5-7.5s-7.5,3.358-7.5,7.5v10.499h-6.749c-4.143,0-7.5,3.358-7.5,7.5v17.999h-11.249    c-4.143,0-7.5,3.358-7.5,7.5v45h-8.997c-4.143,0-7.5,3.358-7.5,7.5v196.169h-51.5V168.563c0-4.142-3.357-7.5-7.5-7.5h-44.5    v-34.382c28.707-3.323,51.07-27.768,51.07-57.351c0-31.844-25.906-57.75-57.75-57.75c-25.856,0-48.213,17.046-55.379,41.333    h-23.431c-4.142,0-7.5,3.358-7.5,7.5v128.585h-44.49c-4.142,0-7.5,3.358-7.5,7.5V399.4H7.5c-4.142,0-7.5,3.358-7.5,7.5    S3.358,414.4,7.5,414.4z M344.73,59.729h13.498v10.499H344.73V59.729z M325.981,85.227h50.996v37.497h-50.996V85.227z     M360.479,341.396V399.4H216.987v-58.004H360.479z M309.484,137.727h83.989V399.4h-17.995v-65.504c0-4.142-3.357-7.5-7.5-7.5    h-58.494V137.727z M227.984,326.396h-18.498c-4.142,0-7.5,3.358-7.5,7.5V399.4h-36.993V176.063h62.99V326.396z M184.304,26.579    c23.572,0,42.75,19.177,42.75,42.75c0,21.3-15.66,39.008-36.07,42.225V60.413c0-4.142-3.358-7.5-7.5-7.5h-38.678    C151.302,37.234,166.71,26.579,184.304,26.579z M112.994,67.913h62.99v93.15h-10.995V80.791c0-4.142-3.358-7.5-7.5-7.5    s-7.5,3.358-7.5,7.5v305.735c0,0.033,0.004,0.064,0.005,0.097V399.4h-37V67.913z M61.004,377.729h19.39c4.142,0,7.5-3.358,7.5-7.5    s-3.358-7.5-7.5-7.5h-19.39v-13.2h19.39c4.142,0,7.5-3.358,7.5-7.5s-3.358-7.5-7.5-7.5h-19.39v-13.2h19.39    c4.142,0,7.5-3.358,7.5-7.5s-3.358-7.5-7.5-7.5h-19.39v-13.2h19.39c4.142,0,7.5-3.358,7.5-7.5s-3.358-7.5-7.5-7.5h-19.39v-13.2    h19.39c4.142,0,7.5-3.358,7.5-7.5s-3.358-7.5-7.5-7.5h-19.39v-13.2h19.39c4.142,0,7.5-3.358,7.5-7.5s-3.358-7.5-7.5-7.5h-19.39    v-17.732h36.99V399.4h-36.99V377.729z"/>
		<path style="fill:#333333;" d="M446.978,427.898H7.5c-4.142,0-7.5,3.358-7.5,7.5s3.358,7.5,7.5,7.5h439.478    c4.143,0,7.5-3.358,7.5-7.5S451.12,427.898,446.978,427.898z"/>
		<path style="fill:#333333;" d="M131.491,394.026c4.142,0,7.5-3.358,7.5-7.5V80.791c0-4.142-3.358-7.5-7.5-7.5s-7.5,3.358-7.5,7.5    v305.735C123.991,390.668,127.349,394.026,131.491,394.026z"/>
		<path style="fill:#333333;" d="M183.488,394.335c4.142,0,7.5-3.358,7.5-7.5V188.628c0-4.142-3.358-7.5-7.5-7.5s-7.5,3.358-7.5,7.5    v198.207C175.988,390.977,179.346,394.335,183.488,394.335z"/>
		<path style="fill:#333333;" d="M209.487,314.729c4.142,0,7.5-3.358,7.5-7.5V188.628c0-4.142-3.358-7.5-7.5-7.5s-7.5,3.358-7.5,7.5    v118.602C201.987,311.372,205.345,314.729,209.487,314.729z"/>
		<path style="fill:#333333;" d="M334.984,147.729c-4.143,0-7.5,3.358-7.5,7.5v152c0,4.142,3.357,7.5,7.5,7.5s7.5-3.358,7.5-7.5    v-152C342.484,151.087,339.127,147.729,334.984,147.729z"/>
		<path style="fill:#333333;" d="M375.479,307.229V155.227c0-4.142-3.357-7.5-7.5-7.5s-7.5,3.358-7.5,7.5v152.002    c0,4.142,3.357,7.5,7.5,7.5S375.479,311.372,375.479,307.229z"/>
		<path style="fill:#333333;" d="M340.48,91.804c-4.143,0-7.5,3.358-7.5,7.5v9.344c0,4.142,3.357,7.5,7.5,7.5s7.5-3.358,7.5-7.5    v-9.344C347.98,95.162,344.623,91.804,340.48,91.804z"/>
		<path style="fill:#333333;" d="M362.479,91.804c-4.143,0-7.5,3.358-7.5,7.5v9.344c0,4.142,3.357,7.5,7.5,7.5s7.5-3.358,7.5-7.5    v-9.344C369.979,95.162,366.621,91.804,362.479,91.804z"/>
		<path style="fill:#333333;" d="M233.732,366.063h110c4.143,0,7.5-3.358,7.5-7.5s-3.357-7.5-7.5-7.5h-110    c-4.143,0-7.5,3.358-7.5,7.5S229.59,366.063,233.732,366.063z"/>
		<path style="fill:#333333;" d="M233.732,388.729h110c4.143,0,7.5-3.358,7.5-7.5s-3.357-7.5-7.5-7.5h-110    c-4.143,0-7.5,3.358-7.5,7.5S229.59,388.729,233.732,388.729z"/>
	</g>
</g>















</svg>
